<svg xmlns="http://www.w3.org/2000/svg" version="1.1" xmlns:xlink="http://www.w3.org/1999/xlink" xmlns:svgjs="http://svgjs.dev/svgjs" viewBox="0 0 1422 800" opacity="1"><defs><linearGradient x1="50%" y1="0%" x2="50%" y2="100%" id="ssscribble-grad"><stop stop-color="hsl(206, 75%, 49%)" stop-opacity="1" offset="0%"></stop><stop stop-color="hsl(331, 90%, 56%)" stop-opacity="1" offset="100%"></stop></linearGradient></defs><g fill="none" stroke-width="1.25" stroke="url(#ssscribble-grad)" stroke-linecap="round"><path d="M1560.2 325.87C1495.7 351 1415.06 379.27 1340.3 410.57 1290.71 442.03 1277.39 476.8 1301.17 514.83 1355.56 553.17 1423.32 594.77 1486.26 639.17 1530.75 683.13 1543.71 728.73 1522.56 774.55 1471.73 817.28 1400.67 857.34 1322.88 892.27 1250.45 919.94 1194.97 938.97 1162.55 947.33 1155.6 946.14 1170.76 933.88 1201.23 911.55 1242.05 884.97 1282.04 854.85 1313.86 826.2 1334.98 807.08 1339.37 799.83 1326.93 809.24 1299.38 838.16 1258.65 885.53 1208.99 948.41 1152.32 1019.47 1093.79 1091.08 1036.77 1153.13 980.96 1196.21 930.32 1213.84 885.53 1202.56 844.9 1166.67 809.92 1111.94 779.56 1050.06 752.57 997.41 728.44 964.59 705.87 961.38 684.92 991.62 663.96 1049.71 642.12 1124.12 620.68 1198.55 597.56 1255.51 572.43 1280.46 547.3 1267.7 520.76 1219.84 493.25 1149.35 466.15 1072.95 438.87 1007.56 412.43 966.59 387.61 957.93 365.19 980.49 346.59 1026.58 331.35 1086.7 321.71 1144.7 318.79 1187.94 320.03 1209.3 328.2 1202.34 342.76 1168.59 358.52 1113.28 376.98 1044.65 394.92 972.69 405.86 905.31 409.19 850.8 400.78 813.36 377.27 794.89 338.37 794.03 284.32 806.84 219.56 831.25 148.2 859.7 77.72 886.95 -3.99 920.45 -22.95 926.7 42.62 898.2 97.99 868.59 148.57 832.91 180.98 793.57 183.72 750.49 154.39 706.71 95.72 663.82 18.6 619.99 -61.15 578.48 -125.24 539.95 -158.71 501.49 -152.79 466.24 -108.17 434.38 -38.38 402.62 39.7 374.09 104.2 348.96 134.86 323.83 124.8 302.69 78.56 285.51 8 268.42 -65.25 255.44 -121.51 246.51 -148.09 237.65 -136.45 232.6 -89.99 230.85 -19.15 228.14 60.93 227.29 134.03 226.82 187.36 222.62 212.65 215.83 209.07 204.19 179.28 184.97 133.93 157.84 84.52 121.29 38.92 76.01 9.1 21.94 0.22 -39.17 12.87 -102.38 47.04 -165.33 97.7 -222.68 160.33 -268.43 227.56 -298.93 293.15 -310.15 354.26 -302.39 405.71 -275.86 446.1 -234.65 484.99 -166.71 507.11 -107.08 503.87 -153.61 498.35 -215.26 494.83 -289.62 494.63 -363.92 496.53 -441.49 523.61 -399.56 548.21 -299.14 566.2 -233.61 587.81 -188.29 612.94 -175.52 638.07 -200.46 666.12 -254.86 697.07 -324.32 728.27 -393.76 762.81 -444.46 800.83 -465.02 839.46 -452.11 881.81 -407.31 927.6 -340.48 973.39 -264.41 1021.55 -193.32 1070.61 -139.01 1116.75 -109.3 1160.52 -106.45 1199.11 -127.11 1229.71 -166.75 1250.88 -214.01 1260.16 -258.91 1258.5 -295.62 1244.46 -315.02 1219.3 -314.26 1189.67 -294 1156.95 -255.39 1127.25 -203.33 1109.52 -141.75 1106.72 -77.12 1123.74 -14.59 1162.29 43.69 1220.09 93.35 1291.85 133.27 1367.43 163.64 1437.14 184.67 1489.34 198.26 1515.33 204.59 1510.52 207 1475.61 207.81 1420.93 205.54 1357.2 204.57 1300.54 206.21 1268.26 207.39 1268.62 212.34 1304.9 221.4 1370.86 230.75 1451.51 244.22 1527.05 261.7 1578.25 279.35 1590.86 300.75 1560.2 325.87Q1560.2 325.87 1560.2 325.87" opacity="0.22"></path><path d="M1504.18 488.19C1445.47 511.38 1371.57 537.22 1299.85 565.35 1246.19 593.28 1221.18 623.08 1228.22 654.07 1265.27 684.1 1321.22 714.27 1382.58 743.43 1438.06 770.14 1473.77 794.09 1482.9 813.81 1464.53 829.13 1420.63 838.44 1358.94 840.64 1288.02 837.71 1218.42 827.6 1158.82 810.88 1105.77 754.58 1200.2 753.37 1236.31 811.17 1249.37 866.24 1250.27 929.76 1239.49 996.08 1218.69 1057.49 1188.62 1107.95 1151.95 1140.66 1109.44 1151.9 1064.28 1139.75 1018.69 1105.81 971.6 1058.06 926.47 1003.03 884.25 951.28 842.56 915.32 804.29 901.45 769.49 914.63 735.39 954.87 704.35 1015.5 676.14 1085.9 648.17 1152.82 622.6 1202.69 599.41 1224.47 576.21 1214.02 555.94 1173 538.72 1110.73 521.75 1039.99 508.27 974.22 498.63 925.25 489.68 901.34 484.98 904.68 484.59 932.18 484.72 978.81 488.65 1032.93 495.55 1083.84 503.92 1134.94 506.45 1098.53 488.05 1019.94 463.07 955.06 427.65 889.89 381.4 830.6 326.89 780.91 265.47 744.57 201.11 722.17 140.35 713.8 87.14 716.86 47.53 728.02 25.8 746.58 24.55 766.91 44.36 785.85 79.8 804.19 126.92 817.04 177.16 823.41 218.15 825.39 243.15 820.39 244.52 809.21 218.38 793.77 167.57 773.63 99 750.17 24.55 724.14 -42.47 696.48 -88.47 668.37 -104.46 639.2 -86.27 610.69 -37.2 583.59 29.92 556.24 101.47 530.79 160.18 507.6 189.96 484.4 185.18 464 148.48 446.17 87.76 428.09 19.47 412.08 -40.44 397.51 -80.55 381.87 -90.33 366.56 -68.32 350.5 -19.2 331.88 48.22 310.83 121.65 286.07 189.69 257.05 241.78 222.86 271.91 182.8 277.46 138.34 261.23 88.52 229.32 34.42 186.62 -20.25 143.71 -75.11 108.07 -126.87 82.84 -171.21 74.21 -206.13 82.88 -228.17 107.4 -236.17 146.07 -228.79 194.71 -206.49 250.84 -174.59 309.25 -135.25 366.21 -94.52 421.15 -61.72 470.16 -40.92 512.38 -38.01 548.73 -57.01 578.29 -96.91 602.23 -154.51 621.18 -222.42 636.61 -291.64 650.11 -351.36 660.92 -391.96 671.79 -406.39 683.88 -391.44 694.98 -351.42 708.43 -292.49 724.84 -226.34 741.05 -168.65 760.63 -129.97 783.82 -119.51 807.02 -141.27 833.28 -188.79 862.25 -251.11 891.03 -316.93 922.1 -370.74 954.74 -402.04 986.4 -406.28 1018.5 -381.33 1049.77 -332.29 1078.36 -267.45 1104.13 -197.32 1125.38 -132.56 1146.46 -66.09 1142.86 -67.12 1117.66 -118.36 1096.44 -160.53 1072.56 -198.23 1049.62 -225.91 1034.17 -241.87 1027.35 -241.82 1033.23 -226.18 1054.97 -196.69 1092.55 -155.46 1145.17 -106.35 1208.2 -51.36 1276.93 4.92 1343.79 59.43 1399.86 111.91 1438.56 158.99 1453.7 200.01 1444.26 235.9 1411.08 265.79 1360.03 290.66 1303.61 311.14 1251.28 328.39 1215.25 343.77 1206.33 356.69 1227.19 369.49 1276.25 383.2 1345.12 395.96 1420.23 410.68 1485.55 427.93 1526.83 444.98 1533.96 464.99 1504.18 488.19Q1504.18 488.19 1504.18 488.19" opacity="0.76"></path><path d="M1448.18 550.95C1395.16 572.22 1328.17 592.66 1260.61 612.05 1188.13 639.96 1202.77 684.57 1275.17 698.46 1331.46 704.88 1379.43 707.09 1410.98 704.81 1422.44 700.95 1410.4 692.94 1377.11 681.43 1326.84 670.35 1265.97 657.98 1201.88 646.21 1140.18 639.22 1087.45 636.65 1047.34 640.9 1021.66 654.61 1010.64 678 1012.26 711.98 1025.59 755.5 1045.69 807.49 1068.62 865.32 1093.99 924.07 1116.06 980.38 1132.63 1029 1147.19 1075.09 1129.89 1054.05 1101.65 992.85 1076.96 944.59 1049.19 898.42 1019.8 862.44 988.38 844.95 956.96 848.71 926.56 875.16 895.47 921.96 866.22 982.44 839.39 1047.45 812.43 1106.59 788.17 1149.67 766.91 1168.47 745.65 1160.11 727.89 1125.54 713.43 1071.55 698.84 1007.62 687.28 944.04 678.27 890.65 664.58 848.34 639.26 899.39 622.1 967.63 605.79 1014.95 585.26 1052.94 559.16 1076.39 527.3 1083.57 488.88 1071.97 443.8 1043.4 394.46 1000.7 340.74 948.08 284.96 890.62 231.6 831.76 182.31 776.68 141.1 728.54 111.62 688.66 96.1 658.87 96.67 638.83 111.68 628.38 140.73 625.57 180.29 628.21 222.24 636.52 262.51 646.59 293.81 656.45 308.13 667.64 302.84 676.14 275.8 681.08 228.66 685.02 166.84 684.73 98.56 680.29 9.09 669.68 -30.17 630.49 34.97 604.32 98.32 585.95 163.16 566.04 216.18 544.78 244.81 523.52 244.58 501.41 216.81 478.36 166.38 455.07 105.34 430.36 45.97 403.87 -2.37 376.53 -28.95 346.68 -29.55 313.94 -4.87 279.81 41.86 242.34 102.96 201.55 170.2 159.76 234.12 115.33 287.09 69.22 324 24.45 342 -19.51 341.82 -60.59 324.59 -96 296.11 -124.85 262.12 -144.83 225.37 -155.21 193.5 -154.62 170.35 -142.61 156.38 -122.34 155.15 -93.8 166.23 -60.05 188.16 -27.7 219.83 1.25 258.5 21.8 303.15 28.25 350.38 19.24 397.86 -6.89 446.12 -49.29 491.86 -104.62 534.16 -167.52 574.74 -230.42 611.36 -286.1 644.23 -326.76 675.21 -347.07 703.17 -343.59 728.75 -316.32 753.25 -271.14 776.29 -213.82 798.41 -154.1 820.22 -104.31 841.68 -71.88 862.94 -63.51 884.2 -82.3 904.77 -123.21 924.37 -178.15 943.67 -238.95 961.44 -293.17 977.04 -331.78 991.56 -350.03 1002.99 -343.64 1010.59 -314.16 1016.29 -266.18 1017.44 -206.17 1013.71 -142.33 1008.26 -81.87 998.45 -31.88 985.1 3.19 965.87 21.06 941.41 -35.37 949.9 -85.33 969.24 -118.05 999.66 -143.51 1041.51 -159.15 1092.52 -165.27 1150.94 -159.47 1212.79 -142.75 1271.89 -116.58 1324.05 -82.36 1363.42 -42.6 1385.74 1.94 1388.34 48.2 1370.39 94.19 1336.39 140.62 1289.8 184.55 1238.15 225.26 1192.64 264.39 1159.74 299.94 1147.05 332.1 1159.65 362.6 1196.39 390.37 1252.94 415.93 1320.52 440.56 1387.82 463.79 1442.46 486.08 1474.43 508.11 1476.81 529.69 1448.18 550.95Q1448.18 550.95 1448.18 550.95" opacity="0.54"></path><path d="M1392.18 443.34C1344.73 462.67 1284.75 478.89 1222.3 492.05 1134.21 520.42 1243.69 534.82 1311.09 532.47 1351.08 532.06 1318.45 542.54 1253.45 560.32 1198.49 579.98 1141.18 606.05 1086.14 639.14 1036 678.29 994.46 723.48 962.89 773.35 941.72 824.67 930.59 876.09 927.87 924.34 938.47 981.55 979.47 1018.91 998.95 992.01 1010.37 959.41 1017.57 918.82 1020.29 875.16 1019.06 820.55 993.76 797.01 972.58 842.2 956.73 892.11 939.36 950.05 921.01 1008.54 902.41 1059.83 883.32 1096.45 863.99 1112.47 844.66 1105.99 825.54 1077.43 806.5 1031.59 787.19 975.33 767.47 916.12 746.86 861.78 725.32 818.84 702.05 791.83 676.44 782.68 649.05 792.05 618.49 816.49 584.34 851.42 548.12 893.52 508.25 935.31 465.09 971.51 421.23 999.81 375.7 1015.23 330.11 1016.53 287.62 1004.42 248.57 979.12 215.45 943.2 190.51 898.84 175.1 849.53 170.93 798.6 177.17 747.51 194.58 699.73 221.9 656.98 254.11 619.37 289.9 588.39 324.73 563.79 360.24 538.59 341.14 516.3 279.11 512.72 222.15 512.71 160.34 511.91 101.12 509.49 36.18 505.68 39.52 484.9 108.08 467 166.71 454 224.73 437.88 272.18 418.55 299.41 399.22 302.99 377.15 283.39 352.49 243.28 327.83 191.13 300.57 135.91 270.96 84.62 241.44 46.93 209.78 28.12 176.45 29.68 143.8 52.43 110.27 92.82 76.78 146.06 45.41 205.77 15.64 265.29 -11.13 319.54 -33.63 363.26 -51.17 393.75 -62.4 410.51 -66.49 368.45 -29.73 328.1 6.64 299.7 32.23 275.71 57.41 258.17 78.95 246.31 92.05 243.02 95.83 247.99 87.82 259.8 66.39 278.61 32.25 302.86 -13.28 331.84 -66.72 363.92 -124.26 397.54 -180.53 433.32 -229.63 468.87 -266.66 503.18 -286.95 538.05 -288.71 570.88 -270.93 601.25 -235.47 631.59 -188.58 659.32 -135.07 684.27 -82.63 709.16 -40.61 731.35 -14 750.68 -7.51 770.01 -23.52 786.02 -58.17 798.78 -105.63 811.48 -160.3 820.85 -212.55 826.96 -255.01 834.54 -288.14 836.38 -231.89 833.49 -156.81 833.37 -98.98 833.96 -42.64 836.71 7.19 844.21 47.08 856.21 74.32 874.19 88.35 899.01 88.92 931.08 78.53 970.6 60.11 1015.79 34.68 1066.33 7.39 1120.06 -18.58 1172.84 -43.12 1222.77 -61.77 1265.92 -73.27 1308.35 -77.35 1299.62 -38.45 1250.12 -0.73 1207.83 29.84 1163.88 62.71 1124.81 96.52 1098.59 132.05 1088.43 167.03 1097.77 200.63 1127.48 234.63 1174.41 266.63 1233.16 296.27 1295.84 325.85 1353.68 352.99 1397.61 377.53 1421.04 402.03 1419.41 424.01 1392.18 443.34Q1392.18 443.34 1392.18 443.34" opacity="0.46"></path><path d="M1336.2 286.8C1294.21 304.2 1241.27 319.59 1184.69 333.13 1131.67 346.81 1088.47 358.91 1059.71 369.8 1055.62 393.39 1111.68 416.1 1193.43 443.39 1268 480.57 1296.94 530.55 1271.63 597 1201.12 674.45 1105.45 762.09 1009.9 848.17 927.61 915.5 871.81 952.74 840.96 947.17 832.38 905.32 835.32 835.9 839.47 765.12 848.57 729.35 848.98 744.45 837.91 814.62 832.21 864.4 823.56 917.75 811.95 968.94 800.27 1012.45 785.75 1043.01 768.35 1056.46 750.96 1051.64 731.09 1028.6 708.88 990.65 686.61 942.55 661.87 889.49 634.76 837.29 580.22 755.54 516.5 724.84 447.11 747.28 382.66 811.03 322.42 881.89 277.37 931.91 254.6 949.93 260.44 925.08 297.13 867.09 347.08 786.48 401.5 699.5 435.78 619.15 424.86 546.93 364.72 490.24 264.64 446.85 157.39 413.11 81.53 385.52 72.19 358.78 94.24 346.39 132.32 333.17 181.89 318.77 235.03 304.52 286.21 288.77 328.2 271.37 353.77 253.98 360.39 235.34 348.03 215.71 317.86 196.23 275.58 176.05 227.34 155.64 133.57 116.75 86.21 81.05 104.28 54.48 178.93 37.57 283.54 36.96 382.79 55.56 468.26 100.79 422.98 158.51 372.24 96.08 349.85 9.83 348.39 -92.22 364.88 -181.47 392.34 -229.43 429.62 -218.54 469.97 -150.23 491.22 -104.75 512.07 -56.81 532.03 -12.14 552.16 22.36 571.05 43.64 588.44 48.47 605.84 35.03 621.34 6.25 635.1 -33.81 649.02 -81.56 661.56 -129.79 673.12 -172.86 698.38 -229.62 724.4 -224.93 757.24 -163.66 801.05 -67.38 859.81 33.24 935.83 111.32 1020.2 153.12 1110.13 157.13 1189.84 135.41 1241.28 94.93 1253.25 57.25 1218.64 33.41 1155.62 20.59 1082.22 27.91 1033.07 51.03 1040.5 84.03 1107.66 124.62 1214.86 166.66 1269.82 188.58 1317.22 209.86 1350.82 230.07 1366.63 250.41 1361.77 269.4 1336.2 286.8Q1336.2 286.8 1336.2 286.8" opacity="0.63"></path><path d="M1280.2 258.01C1197.78 288.94 1098.23 322.99 1020.6 360.97 991.17 400.79 1013.78 447.67 1071.95 503.08 1146.52 562.13 1204.7 629.6 1228.77 701.69 1216.03 768.52 1166.81 827.68 1095.35 868.37 1011.51 884.49 930.85 870.99 862.15 828.23 804.99 772.81 763.09 714.3 732.39 673.63 710.55 671.99 692.21 712.97 672.47 791.08 654.79 885 631.4 964.87 600.47 1000.46 569.54 979.55 532.54 908.79 491.89 815.69 453.31 730.27 415.38 676.77 383.63 665.05 360.72 694.77 351.7 747.92 361.19 804.04 382.22 852.9 418.48 875.75 461.78 869.7 492.7 838.87 505.25 787.11 485.79 724.76 429.52 654.78 343.6 587.05 246.36 526.37 165.53 468.15 125.31 418.35 142.8 376.23 208.5 335.73 301.78 300.29 384.2 269.36 415.99 238.43 388.48 213.48 318.22 195.64 198.29 176.2 208.93 193.07 333.45 223.79 424.56 238.47 497.48 245.83 544.16 236.14 563.39 201.66 561.05 142.14 547.73 61.08 524.26 -27.23 505.05 -108.12 495.47 -160.51 488.26 -171.48 492.89 -135.59 508.04 -62.11 525 19.04 549.58 83.54 580.51 104.47 611.44 68.9 647.25 -4.69 688.62 -86.68 731.8 -152.86 783.43 -176.25 844.23 -151.94 907.42 -88.61 977.56 -2.36 1048.69 85.25 1109.68 160.22 1156.42 210.39 1177.74 234.81 1171.59 234.65 1135.34 219.9 1076.43 200.73 1019.05 176.3 976.91 159.77 971.38 154.31 1014.07 152.51 1096.63 161.89 1196.02 180.39 1278.21 200.74 1311.99 227.08 1280.2 258.01Q1280.2 258.01 1280.2 258.01" opacity="0.45"></path><path d="M1224.18 389.47C1153.78 416.53 1066.3 451.33 988.88 492.81 942 534.14 934.35 581.43 961.45 632.19 1015.54 679.83 1075.07 726.08 1123.37 765.3 1154.76 792.99 1158.05 805.52 1135.59 798.36 1092.4 776.11 1035.01 736.98 972.64 687.76 906.49 644.93 845.24 614.3 791.89 608.19 741.72 635.12 699.31 692.12 663.47 769.97 629.2 851.41 598.84 916.16 571.78 944.47 544.71 929.2 522.23 873.6 505.47 795.28 490.27 714.08 483.45 648.54 486.72 610.47 493.17 604.94 509.86 626.35 534.3 663.81 554.96 711.77 573.5 753.63 581.22 781.3 568.21 796.02 532.83 791.37 473.27 770.77 396.79 738.21 312.99 696.94 239.06 652.64 192.13 604.43 184.37 558.49 220.81 517.75 287.78 476.59 369.78 441.85 440.18 414.78 471.5 387.72 457.35 369.63 406.48 359.75 332.73 349.45 263.84 346.16 219.5 347.48 206.93 344.87 232.23 341.58 286.7 332.43 360.39 311.32 439.12 277.12 510.96 226.94 571.95 163.79 616.03 89.85 644.78 13.71 663.26 -74.76 671.6 -68.62 682.96 27.18 692.17 95.07 709.84 145.19 736.9 160.47 763.96 132.17 799.14 72.91 840.96 1.92 882.16 -65.49 928.35 -107.09 976.02 -114.19 1018.71 -88.25 1056.52 -33.35 1083.12 37.65 1096.08 115.05 1090.85 186.27 1065.33 243.99 1028.96 286.62 982.32 312.94 936.8 326.96 910.51 329.45 909.48 327.76 941.89 327.02 1006.07 323.16 1090.36 325.1 1174.55 334.81 1235.87 344.37 1255.5 362.41 1224.18 389.47Q1224.18 389.47 1224.18 389.47" opacity="0.68"></path><path d="M1168.18 532.8C1109.47 555.99 1035.29 582.06 963.27 609.62 907.62 636.03 877.38 661.69 874.32 683.77 897.6 701.45 936.64 711.69 980.62 711.65 1025.89 704.43 1059.49 685.63 1077.26 656.22 1081.69 625.11 1069.58 591.19 1044.95 561.43 1010.74 546.49 970.68 548.22 929.45 571.36 885.37 616.55 844.17 678.93 808.15 749.56 771.87 816.35 741.59 866.69 718.4 888.47 695.2 878.02 680.18 836.44 672.72 774.28 664.99 703.62 663.99 636.8 667.88 584.07 669.84 545.69 647.51 585.48 602.09 630.93 553.91 661.8 492.81 683.81 423.39 695.14 355.26 700.24 295.41 694.91 255.13 681.47 241.19 663.68 258.22 641.33 304.93 617.11 367.99 591.68 437.47 566.7 496.18 543.51 525.96 520.31 522.64 500 490.15 481.68 434.61 462.16 373.43 442.31 320.74 419.89 282.59 393.14 269.81 360.27 282.39 319.42 316.4 272.34 367.15 217.03 426.15 155.76 490.05 95.11 550.77 37.2 604.27 -10.4 652.44 -41.34 691.84 -50.84 723.79 -35.12 751.05 0.6 774.32 54.21 795.96 115.91 816.21 169.13 837.46 206.01 860.65 216.47 883.85 194.7 907.9 149.07 931.39 91.23 977.99 -19.73 948.55 88.81 901.34 181.04 872.74 240.85 849.49 292.96 839.63 335.93 851.2 371.71 884.77 399.67 939.92 422.2 1009.6 440.31 1083.99 456.85 1148.48 474.18 1189.93 490.37 1197.97 509.59 1168.2 532.79Q1168.18 532.8 1168.18 532.8" opacity="0.42"></path><path d="M1112.38 526.14C1065.02 545.47 1004.84 560.86 942.38 571.94 886.3 582.38 843.64 587.39 818.15 586.28 811.61 583.61 820.99 574.23 841.49 558.59 872.11 542.86 904.12 523.32 932.56 502.89 968.25 483.95 986.04 506.46 971.5 560.3 956.22 611.54 937.39 669.69 917.13 728.02 895.93 779.28 875.13 816.35 855.8 832.37 836.47 825.89 819.53 796.79 804.28 750.9 788.08 694.93 771.75 635.91 753.52 581.05 731.86 534.74 705.44 500.71 672.58 479.74 634.32 472.2 588.65 474.99 536.58 484.42 482.81 501.1 427.88 518.46 377.13 533.34 323.14 554.31 329.31 564.67 393.76 553.83 448.75 544.12 505.02 529.49 552.38 510.16 579.49 490.83 584.04 467.72 567.43 440.97 531.4 413.69 485.66 381.86 438.7 345.48 393.54 308 360.22 265.84 342.08 220.24 337.56 175.57 348.99 130.46 373.08 88.44 407.28 53.67 448.05 27.97 491.09 15.38 537.03 16.22 580.92 32.92 620.68 65.06 660.02 105.74 694.53 153.76 723.79 202.27 752.61 240.71 776.86 265.89 796.19 272.37 815.51 256.35 829.02 223.19 836.64 179.4 843.84 128.53 844.5 81.38 838.65 44.3 826.36 13.3 784.43 51.18 769.06 106.91 770.3 152.68 781.79 199.96 806.44 245.49 844.7 290.92 895.36 332.13 954.69 368.3 1015.82 402.91 1072.56 433.06 1116.05 459.08 1140.12 484.46 1139.49 506.81 1112.38 526.14Q1112.38 526.14 1112.38 526.14" opacity="0.79"></path><path d="M1056.2 377.19C973.78 408.12 873.31 418.85 793.76 413.61 753.33 412.14 752.14 404.91 772.49 406.29 810.58 432.31 839.4 486.17 848.56 567.67 854.81 660.02 841.65 740.87 810.73 776.46 779.8 755.55 734.02 683.68 674.18 592.59 611.42 505.37 534.33 441.68 455.7 405.62 394.81 394.33 363.2 394.71 380.96 392.5 437.84 395.13 525.78 383.48 608.2 352.55 639.99 321.62 617.03 274.35 560.23 218.11 459.12 142.4 436.63 99.8 496.96 179.8 547.86 248.21 593.31 307.55 624.24 328.46 655.17 292.87 668.65 224.56 671.34 154.87 681.38 96.04 696.12 74.99 730.19 89.5 789.74 128.66 875.95 184.16 973.02 239.23 1052.49 298.06 1087.99 346.26 1056.2 377.19Q1056.2 377.19 1056.2 377.19" opacity="0.25"></path><path d="M1000.18 253.88C941.47 277.08 866.72 295.56 795.52 312.49 736.99 333.83 697.98 361.44 676.93 400.1 671.72 449.65 672.65 512.63 670.74 582.2 672.27 647.41 663.37 698.69 640.17 720.47 616.97 710.02 581.69 667.33 539.95 606.64 501.67 537.68 464.53 471.84 439.34 417.64 429.99 372.71 444.39 339.25 485.93 313.65 540.12 292.42 605.47 271.59 664.18 248.4 693.96 225.2 693.54 201.83 669.72 182.86 625.46 168.26 580.56 165.52 546.97 180.05 518.06 203.85 507.06 245.09 511.67 297.04 520.65 340.73 538.61 374.02 561.81 384.47 585 362.69 611.23 320.81 642.45 272.6 678.04 220.03 725.23 181.65 784.54 162.51 848.54 154.25 918.04 162.84 979.31 181.7 1020.13 204.97 1029.97 230.68 1000.2 253.87Q1000.18 253.88 1000.18 253.88" opacity="0.48"></path><path d="M944.2 295.47C861.78 326.4 759.51 385.39 683.6 464.53 627.21 546.05 589.72 628.87 558.79 664.46 527.86 643.55 509.36 569.43 525.21 489.83 560.58 408.52 637.78 346.25 720.2 315.32 751.99 284.4 738.04 290.66 710.76 331.44 669.02 370.5 656.33 419.55 687.26 440.46 718.19 404.87 786.87 347.12 869.15 306.14 936.97 267.54 975.99 264.54 944.2 295.47Q944.2 295.47 944.2 295.47" opacity="0.58"></path></g></svg>